<mxfile host="app.diagrams.net" agent="Mozilla/5.0 (Windows NT 10.0; Win64; x64) AppleWebKit/537.36 (KHTML, like Gecko) Chrome/132.0.0.0 Safari/537.36 Edg/132.0.0.0" version="26.0.10">
  <diagram name="Page-1" id="syeT5-5dFwp5H6gLEFHU">
    <mxGraphModel dx="2728" dy="1007" grid="1" gridSize="10" guides="1" tooltips="1" connect="1" arrows="1" fold="1" page="1" pageScale="1" pageWidth="827" pageHeight="1169" math="0" shadow="0">
      <root>
        <mxCell id="0" />
        <mxCell id="1" parent="0" />
        <mxCell id="0ipLXNka5gpPY9lueDXf-29" style="edgeStyle=orthogonalEdgeStyle;rounded=0;orthogonalLoop=1;jettySize=auto;html=1;exitX=0.5;exitY=1;exitDx=0;exitDy=0;fontSize=22;" edge="1" parent="1" source="0ipLXNka5gpPY9lueDXf-1" target="0ipLXNka5gpPY9lueDXf-3">
          <mxGeometry relative="1" as="geometry" />
        </mxCell>
        <mxCell id="0ipLXNka5gpPY9lueDXf-30" style="edgeStyle=orthogonalEdgeStyle;rounded=0;orthogonalLoop=1;jettySize=auto;html=1;exitX=0.5;exitY=1;exitDx=0;exitDy=0;entryX=0.5;entryY=0;entryDx=0;entryDy=0;fontSize=22;" edge="1" parent="1" source="0ipLXNka5gpPY9lueDXf-1" target="0ipLXNka5gpPY9lueDXf-5">
          <mxGeometry relative="1" as="geometry" />
        </mxCell>
        <mxCell id="0ipLXNka5gpPY9lueDXf-31" style="edgeStyle=orthogonalEdgeStyle;rounded=0;orthogonalLoop=1;jettySize=auto;html=1;exitX=0.5;exitY=1;exitDx=0;exitDy=0;fontSize=22;" edge="1" parent="1" source="0ipLXNka5gpPY9lueDXf-1" target="0ipLXNka5gpPY9lueDXf-4">
          <mxGeometry relative="1" as="geometry" />
        </mxCell>
        <mxCell id="0ipLXNka5gpPY9lueDXf-32" style="edgeStyle=orthogonalEdgeStyle;rounded=0;orthogonalLoop=1;jettySize=auto;html=1;exitX=0.5;exitY=1;exitDx=0;exitDy=0;entryX=0.5;entryY=0;entryDx=0;entryDy=0;fontSize=22;" edge="1" parent="1" source="0ipLXNka5gpPY9lueDXf-1" target="0ipLXNka5gpPY9lueDXf-2">
          <mxGeometry relative="1" as="geometry" />
        </mxCell>
        <mxCell id="0ipLXNka5gpPY9lueDXf-1" value="&lt;font&gt;src&lt;/font&gt;" style="rounded=1;whiteSpace=wrap;html=1;fontSize=22;" vertex="1" parent="1">
          <mxGeometry x="470" y="100" width="124" height="60" as="geometry" />
        </mxCell>
        <mxCell id="0ipLXNka5gpPY9lueDXf-18" style="edgeStyle=orthogonalEdgeStyle;rounded=0;orthogonalLoop=1;jettySize=auto;html=1;exitX=0.5;exitY=1;exitDx=0;exitDy=0;fontSize=22;" edge="1" parent="1" source="0ipLXNka5gpPY9lueDXf-2" target="0ipLXNka5gpPY9lueDXf-6">
          <mxGeometry relative="1" as="geometry" />
        </mxCell>
        <mxCell id="0ipLXNka5gpPY9lueDXf-19" style="edgeStyle=orthogonalEdgeStyle;rounded=0;orthogonalLoop=1;jettySize=auto;html=1;exitX=0.5;exitY=1;exitDx=0;exitDy=0;entryX=0.5;entryY=0;entryDx=0;entryDy=0;fontSize=22;" edge="1" parent="1" source="0ipLXNka5gpPY9lueDXf-2" target="0ipLXNka5gpPY9lueDXf-7">
          <mxGeometry relative="1" as="geometry" />
        </mxCell>
        <mxCell id="0ipLXNka5gpPY9lueDXf-20" style="edgeStyle=orthogonalEdgeStyle;rounded=0;orthogonalLoop=1;jettySize=auto;html=1;exitX=0.5;exitY=1;exitDx=0;exitDy=0;fontSize=22;" edge="1" parent="1" source="0ipLXNka5gpPY9lueDXf-2" target="0ipLXNka5gpPY9lueDXf-8">
          <mxGeometry relative="1" as="geometry" />
        </mxCell>
        <mxCell id="0ipLXNka5gpPY9lueDXf-21" style="edgeStyle=orthogonalEdgeStyle;rounded=0;orthogonalLoop=1;jettySize=auto;html=1;exitX=0.5;exitY=1;exitDx=0;exitDy=0;fontSize=22;" edge="1" parent="1" source="0ipLXNka5gpPY9lueDXf-2" target="0ipLXNka5gpPY9lueDXf-12">
          <mxGeometry relative="1" as="geometry" />
        </mxCell>
        <mxCell id="0ipLXNka5gpPY9lueDXf-2" value="&lt;span&gt;hotspot&lt;/span&gt;" style="rounded=1;whiteSpace=wrap;html=1;fontSize=22;" vertex="1" parent="1">
          <mxGeometry x="230" y="200" width="120" height="60" as="geometry" />
        </mxCell>
        <mxCell id="0ipLXNka5gpPY9lueDXf-3" value="&lt;span&gt;java.base&lt;/span&gt;" style="rounded=1;whiteSpace=wrap;html=1;fontSize=22;" vertex="1" parent="1">
          <mxGeometry x="394" y="200" width="120" height="60" as="geometry" />
        </mxCell>
        <mxCell id="0ipLXNka5gpPY9lueDXf-4" value="&lt;span&gt;jdk.internal.vm.ci&lt;/span&gt;" style="rounded=1;whiteSpace=wrap;html=1;fillColor=#f8cecc;strokeColor=#b85450;fontSize=22;" vertex="1" parent="1">
          <mxGeometry x="710" y="200" width="180" height="60" as="geometry" />
        </mxCell>
        <mxCell id="0ipLXNka5gpPY9lueDXf-5" value="&lt;span&gt;java.sql&lt;/span&gt;" style="rounded=1;whiteSpace=wrap;html=1;fontSize=22;" vertex="1" parent="1">
          <mxGeometry x="554" y="200" width="120" height="60" as="geometry" />
        </mxCell>
        <mxCell id="0ipLXNka5gpPY9lueDXf-22" style="edgeStyle=orthogonalEdgeStyle;rounded=0;orthogonalLoop=1;jettySize=auto;html=1;exitX=0.5;exitY=1;exitDx=0;exitDy=0;entryX=0.5;entryY=0;entryDx=0;entryDy=0;fontSize=22;" edge="1" parent="1" source="0ipLXNka5gpPY9lueDXf-6" target="0ipLXNka5gpPY9lueDXf-9">
          <mxGeometry relative="1" as="geometry" />
        </mxCell>
        <mxCell id="0ipLXNka5gpPY9lueDXf-23" style="edgeStyle=orthogonalEdgeStyle;rounded=0;orthogonalLoop=1;jettySize=auto;html=1;exitX=0.5;exitY=1;exitDx=0;exitDy=0;entryX=0.5;entryY=0;entryDx=0;entryDy=0;fontSize=22;" edge="1" parent="1" source="0ipLXNka5gpPY9lueDXf-6" target="0ipLXNka5gpPY9lueDXf-10">
          <mxGeometry relative="1" as="geometry" />
        </mxCell>
        <mxCell id="0ipLXNka5gpPY9lueDXf-24" style="edgeStyle=orthogonalEdgeStyle;rounded=0;orthogonalLoop=1;jettySize=auto;html=1;exitX=0.5;exitY=1;exitDx=0;exitDy=0;fontSize=22;" edge="1" parent="1" source="0ipLXNka5gpPY9lueDXf-6" target="0ipLXNka5gpPY9lueDXf-11">
          <mxGeometry relative="1" as="geometry" />
        </mxCell>
        <mxCell id="0ipLXNka5gpPY9lueDXf-6" value="&lt;span&gt;cpu&lt;/span&gt;" style="rounded=1;whiteSpace=wrap;html=1;fontSize=22;" vertex="1" parent="1">
          <mxGeometry x="-50" y="330" width="120" height="60" as="geometry" />
        </mxCell>
        <mxCell id="0ipLXNka5gpPY9lueDXf-7" value="&lt;span&gt;os&lt;/span&gt;" style="rounded=1;whiteSpace=wrap;html=1;fontSize=22;" vertex="1" parent="1">
          <mxGeometry x="140" y="330" width="120" height="60" as="geometry" />
        </mxCell>
        <mxCell id="0ipLXNka5gpPY9lueDXf-8" value="&lt;span&gt;os-cpu&lt;/span&gt;" style="rounded=1;whiteSpace=wrap;html=1;fillColor=#f8cecc;strokeColor=#b85450;fontSize=22;" vertex="1" parent="1">
          <mxGeometry x="324" y="330" width="120" height="60" as="geometry" />
        </mxCell>
        <mxCell id="0ipLXNka5gpPY9lueDXf-9" value="&lt;span&gt;aarch64&lt;/span&gt;" style="rounded=1;whiteSpace=wrap;html=1;fontSize=22;" vertex="1" parent="1">
          <mxGeometry x="-210" y="430" width="120" height="60" as="geometry" />
        </mxCell>
        <mxCell id="0ipLXNka5gpPY9lueDXf-10" value="&lt;span&gt;x86&lt;/span&gt;" style="rounded=1;whiteSpace=wrap;html=1;fontSize=22;" vertex="1" parent="1">
          <mxGeometry x="-50" y="430" width="120" height="60" as="geometry" />
        </mxCell>
        <mxCell id="0ipLXNka5gpPY9lueDXf-11" value="&lt;span&gt;loongarch64&lt;/span&gt;" style="rounded=1;whiteSpace=wrap;html=1;fillColor=#f8cecc;strokeColor=#b85450;fontSize=22;" vertex="1" parent="1">
          <mxGeometry x="110" y="430" width="140" height="60" as="geometry" />
        </mxCell>
        <mxCell id="0ipLXNka5gpPY9lueDXf-25" style="edgeStyle=orthogonalEdgeStyle;rounded=0;orthogonalLoop=1;jettySize=auto;html=1;exitX=0.5;exitY=1;exitDx=0;exitDy=0;entryX=0.5;entryY=0;entryDx=0;entryDy=0;fontSize=22;" edge="1" parent="1" source="0ipLXNka5gpPY9lueDXf-12" target="0ipLXNka5gpPY9lueDXf-13">
          <mxGeometry relative="1" as="geometry" />
        </mxCell>
        <mxCell id="0ipLXNka5gpPY9lueDXf-26" style="edgeStyle=orthogonalEdgeStyle;rounded=0;orthogonalLoop=1;jettySize=auto;html=1;exitX=0.5;exitY=1;exitDx=0;exitDy=0;entryX=0.5;entryY=0;entryDx=0;entryDy=0;fontSize=22;" edge="1" parent="1" source="0ipLXNka5gpPY9lueDXf-12" target="0ipLXNka5gpPY9lueDXf-14">
          <mxGeometry relative="1" as="geometry" />
        </mxCell>
        <mxCell id="0ipLXNka5gpPY9lueDXf-27" style="edgeStyle=orthogonalEdgeStyle;rounded=0;orthogonalLoop=1;jettySize=auto;html=1;exitX=0.5;exitY=1;exitDx=0;exitDy=0;entryX=0.5;entryY=0;entryDx=0;entryDy=0;fontSize=22;" edge="1" parent="1" source="0ipLXNka5gpPY9lueDXf-12" target="0ipLXNka5gpPY9lueDXf-15">
          <mxGeometry relative="1" as="geometry" />
        </mxCell>
        <mxCell id="0ipLXNka5gpPY9lueDXf-28" style="edgeStyle=orthogonalEdgeStyle;rounded=0;orthogonalLoop=1;jettySize=auto;html=1;exitX=0.5;exitY=1;exitDx=0;exitDy=0;entryX=0.5;entryY=0;entryDx=0;entryDy=0;fontSize=22;" edge="1" parent="1" source="0ipLXNka5gpPY9lueDXf-12" target="0ipLXNka5gpPY9lueDXf-16">
          <mxGeometry relative="1" as="geometry" />
        </mxCell>
        <mxCell id="0ipLXNka5gpPY9lueDXf-12" value="&lt;span&gt;share&lt;/span&gt;" style="rounded=1;whiteSpace=wrap;html=1;fontSize=22;" vertex="1" parent="1">
          <mxGeometry x="500" y="330" width="120" height="60" as="geometry" />
        </mxCell>
        <mxCell id="0ipLXNka5gpPY9lueDXf-13" value="&lt;span&gt;interpreter&lt;/span&gt;" style="rounded=1;whiteSpace=wrap;html=1;fontSize=22;" vertex="1" parent="1">
          <mxGeometry x="360" y="430" width="120" height="60" as="geometry" />
        </mxCell>
        <mxCell id="0ipLXNka5gpPY9lueDXf-14" value="&lt;span&gt;opto&lt;/span&gt;" style="rounded=1;whiteSpace=wrap;html=1;fontSize=22;" vertex="1" parent="1">
          <mxGeometry x="500" y="430" width="120" height="60" as="geometry" />
        </mxCell>
        <mxCell id="0ipLXNka5gpPY9lueDXf-15" value="&lt;span&gt;jvmci&lt;/span&gt;" style="rounded=1;whiteSpace=wrap;html=1;fontSize=22;" vertex="1" parent="1">
          <mxGeometry x="640" y="430" width="120" height="60" as="geometry" />
        </mxCell>
        <mxCell id="0ipLXNka5gpPY9lueDXf-16" value="&lt;span&gt;runtime&lt;/span&gt;" style="rounded=1;whiteSpace=wrap;html=1;fontSize=22;" vertex="1" parent="1">
          <mxGeometry x="780" y="430" width="120" height="60" as="geometry" />
        </mxCell>
        <mxCell id="0ipLXNka5gpPY9lueDXf-33" value="&lt;font&gt;...&lt;/font&gt;" style="text;html=1;align=center;verticalAlign=middle;resizable=0;points=[];autosize=1;strokeColor=none;fillColor=none;fontSize=36;" vertex="1" parent="1">
          <mxGeometry x="265" y="425" width="50" height="60" as="geometry" />
        </mxCell>
        <mxCell id="0ipLXNka5gpPY9lueDXf-34" value="&lt;font&gt;...&lt;/font&gt;" style="text;html=1;align=center;verticalAlign=middle;resizable=0;points=[];autosize=1;strokeColor=none;fillColor=none;fontSize=36;" vertex="1" parent="1">
          <mxGeometry x="930" y="425" width="50" height="60" as="geometry" />
        </mxCell>
        <mxCell id="0ipLXNka5gpPY9lueDXf-35" value="&lt;font&gt;...&lt;/font&gt;" style="text;html=1;align=center;verticalAlign=middle;resizable=0;points=[];autosize=1;strokeColor=none;fillColor=none;fontSize=36;" vertex="1" parent="1">
          <mxGeometry x="905" y="190" width="50" height="60" as="geometry" />
        </mxCell>
      </root>
    </mxGraphModel>
  </diagram>
</mxfile>
